<?xml version="1.0" encoding="utf-8" ?>
<svg baseProfile="tiny" height="1024" version="1.2" viewBox="0,0,1024,1024" width="1024" xmlns="http://www.w3.org/2000/svg" xmlns:ev="http://www.w3.org/2001/xml-events" xmlns:xlink="http://www.w3.org/1999/xlink"><defs /><path d="M 707,571 L 705,573 L 705,674 L 707,676 L 731,676 L 733,674 L 733,585 L 734,584 L 733,583 L 734,582 L 734,575 L 733,574 L 733,572 L 732,571 Z" fill="red" /><path d="M 865,567 L 864,568 L 860,568 L 859,569 L 857,569 L 856,570 L 854,570 L 853,571 L 852,571 L 851,572 L 850,572 L 849,573 L 848,573 L 847,574 L 846,574 L 844,576 L 843,576 L 832,587 L 832,588 L 830,590 L 830,591 L 829,592 L 829,593 L 828,594 L 828,595 L 827,596 L 827,598 L 826,599 L 826,601 L 825,602 L 825,605 L 824,606 L 824,610 L 823,611 L 823,634 L 824,635 L 824,640 L 825,641 L 825,644 L 826,645 L 826,647 L 827,648 L 827,650 L 828,651 L 828,652 L 830,654 L 830,655 L 831,656 L 831,657 L 833,659 L 833,660 L 840,667 L 841,667 L 843,669 L 844,669 L 846,671 L 847,671 L 848,672 L 849,672 L 850,673 L 851,673 L 852,674 L 854,674 L 855,675 L 857,675 L 858,676 L 861,676 L 862,677 L 866,677 L 867,678 L 876,678 L 877,679 L 882,679 L 883,678 L 893,678 L 894,677 L 898,677 L 899,676 L 902,676 L 903,675 L 905,675 L 906,674 L 908,674 L 909,673 L 910,673 L 911,672 L 912,672 L 914,670 L 915,670 L 915,669 L 916,668 L 916,667 L 917,666 L 917,661 L 918,660 L 918,653 L 917,652 L 917,649 L 916,648 L 912,648 L 911,649 L 910,649 L 908,651 L 907,651 L 906,652 L 904,652 L 903,653 L 902,653 L 901,654 L 898,654 L 897,655 L 893,655 L 892,656 L 875,656 L 874,655 L 870,655 L 869,654 L 868,654 L 867,653 L 866,653 L 865,652 L 864,652 L 863,651 L 862,651 L 855,644 L 855,643 L 854,642 L 854,641 L 853,640 L 853,639 L 852,638 L 852,635 L 851,634 L 851,631 L 852,630 L 920,630 L 923,627 L 923,614 L 922,613 L 922,607 L 921,606 L 921,602 L 920,601 L 920,598 L 919,597 L 919,596 L 918,595 L 918,593 L 917,592 L 917,591 L 916,590 L 916,589 L 915,588 L 915,587 L 913,585 L 913,584 L 904,575 L 903,575 L 901,573 L 900,573 L 899,572 L 898,572 L 897,571 L 896,571 L 895,570 L 894,570 L 893,569 L 890,569 L 889,568 L 886,568 L 885,567 Z" fill="red" /><path d="M 470,561 L 469,562 L 465,562 L 464,563 L 461,563 L 460,564 L 459,564 L 458,565 L 457,565 L 456,566 L 455,566 L 454,567 L 453,567 L 451,569 L 450,569 L 443,576 L 443,577 L 441,579 L 441,580 L 440,581 L 440,582 L 439,583 L 439,585 L 438,586 L 438,589 L 437,590 L 437,596 L 436,597 L 436,603 L 437,604 L 437,609 L 438,610 L 438,612 L 439,613 L 439,615 L 440,616 L 440,617 L 441,618 L 441,619 L 443,621 L 443,622 L 445,624 L 445,625 L 446,626 L 447,626 L 451,630 L 452,630 L 454,632 L 455,632 L 456,633 L 457,633 L 458,634 L 460,634 L 461,635 L 464,635 L 465,636 L 470,636 L 471,637 L 479,637 L 480,636 L 485,636 L 486,635 L 489,635 L 490,634 L 492,634 L 493,633 L 494,633 L 495,632 L 496,632 L 498,630 L 499,630 L 501,628 L 502,628 L 506,624 L 506,623 L 508,621 L 508,620 L 510,618 L 510,617 L 511,616 L 511,614 L 512,613 L 512,611 L 513,610 L 513,607 L 514,606 L 514,593 L 513,592 L 513,588 L 512,587 L 512,585 L 511,584 L 511,583 L 510,582 L 510,581 L 509,580 L 509,579 L 508,578 L 508,577 L 505,574 L 505,573 L 502,570 L 501,570 L 499,568 L 498,568 L 496,566 L 495,566 L 494,565 L 493,565 L 492,564 L 490,564 L 489,563 L 486,563 L 485,562 L 480,562 L 479,561 Z" fill="red" /><path d="M 602,529 L 600,531 L 600,532 L 599,533 L 599,672 L 600,673 L 600,674 L 602,676 L 689,676 L 691,674 L 691,653 L 688,650 L 630,650 L 629,649 L 629,532 L 626,529 Z" fill="red" /><path d="M 546,529 L 545,530 L 542,530 L 541,531 L 539,531 L 538,532 L 537,532 L 535,534 L 534,534 L 531,537 L 531,538 L 530,539 L 530,540 L 529,541 L 529,542 L 528,543 L 528,550 L 527,551 L 527,556 L 528,557 L 528,561 L 527,562 L 518,562 L 516,564 L 516,574 L 518,576 L 527,576 L 528,577 L 528,579 L 527,580 L 527,631 L 528,632 L 528,633 L 529,634 L 544,634 L 545,633 L 545,577 L 546,576 L 562,576 L 562,575 L 563,574 L 563,564 L 561,562 L 546,562 L 545,561 L 545,550 L 546,549 L 546,548 L 550,544 L 552,544 L 553,543 L 558,543 L 559,544 L 565,544 L 566,543 L 566,533 L 565,532 L 565,531 L 564,531 L 563,530 L 561,530 L 560,529 Z" fill="red" /><path d="M 798,521 L 797,522 L 791,522 L 790,523 L 787,523 L 786,524 L 785,524 L 784,525 L 782,525 L 781,526 L 780,526 L 779,527 L 778,527 L 776,529 L 775,529 L 769,535 L 769,536 L 768,537 L 768,538 L 767,539 L 767,540 L 766,541 L 766,543 L 765,544 L 765,547 L 764,548 L 764,570 L 763,571 L 762,570 L 760,570 L 759,571 L 750,571 L 748,573 L 748,591 L 750,593 L 753,593 L 754,594 L 763,594 L 764,595 L 764,675 L 765,676 L 790,676 L 792,674 L 792,595 L 793,594 L 815,594 L 816,593 L 817,593 L 818,592 L 818,573 L 816,571 L 793,571 L 792,570 L 792,553 L 793,552 L 793,551 L 794,550 L 794,549 L 796,547 L 797,547 L 798,546 L 799,546 L 800,545 L 821,545 L 822,544 L 822,526 L 820,524 L 819,524 L 818,523 L 815,523 L 814,522 L 808,522 L 807,521 Z" fill="red" /><path d="M 715,521 L 714,522 L 712,522 L 711,523 L 710,523 L 709,524 L 708,524 L 705,527 L 705,528 L 703,530 L 703,532 L 702,533 L 702,543 L 703,544 L 703,545 L 704,546 L 704,547 L 709,552 L 710,552 L 711,553 L 713,553 L 714,554 L 724,554 L 725,553 L 726,553 L 727,552 L 728,552 L 729,551 L 730,551 L 733,548 L 733,547 L 734,546 L 734,545 L 735,544 L 735,543 L 736,542 L 736,534 L 735,533 L 735,531 L 734,530 L 734,529 L 728,523 L 727,523 L 726,522 L 724,522 L 723,521 Z" fill="red" /><path d="M 605,383 L 604,384 L 604,385 L 603,386 L 603,486 L 604,487 L 604,488 L 606,490 L 607,490 L 608,491 L 629,491 L 630,490 L 631,490 L 631,489 L 632,488 L 632,385 L 630,383 Z" fill="red" /><path d="M 743,352 L 741,354 L 741,375 L 740,376 L 741,377 L 741,382 L 740,383 L 726,383 L 724,385 L 724,386 L 723,387 L 723,402 L 724,403 L 724,404 L 725,405 L 726,405 L 727,406 L 739,406 L 740,407 L 740,444 L 741,445 L 741,466 L 742,467 L 742,470 L 743,471 L 743,473 L 744,474 L 744,475 L 745,476 L 745,477 L 746,478 L 746,479 L 753,486 L 754,486 L 755,487 L 756,487 L 757,488 L 758,488 L 759,489 L 761,489 L 762,490 L 765,490 L 766,491 L 772,491 L 773,492 L 782,492 L 783,491 L 791,491 L 792,490 L 795,490 L 796,489 L 797,489 L 799,487 L 799,469 L 797,467 L 780,467 L 779,466 L 777,466 L 776,465 L 775,465 L 771,461 L 771,459 L 770,458 L 770,442 L 769,441 L 769,407 L 770,406 L 795,406 L 796,405 L 797,405 L 798,404 L 798,403 L 799,402 L 799,387 L 798,386 L 798,385 L 796,383 L 770,383 L 769,382 L 769,354 L 767,352 Z" fill="red" /><path d="M 514,337 L 513,338 L 505,338 L 504,339 L 499,339 L 498,340 L 495,340 L 494,341 L 491,341 L 490,342 L 488,342 L 487,343 L 486,343 L 485,344 L 483,344 L 482,345 L 481,345 L 480,346 L 479,346 L 478,347 L 477,347 L 476,348 L 475,348 L 473,350 L 472,350 L 471,351 L 470,351 L 467,354 L 466,354 L 454,366 L 454,367 L 451,370 L 451,371 L 450,372 L 450,373 L 448,375 L 448,376 L 447,377 L 447,378 L 446,379 L 446,380 L 445,381 L 445,382 L 444,383 L 444,385 L 443,386 L 443,388 L 442,389 L 442,392 L 441,393 L 441,397 L 440,398 L 440,429 L 441,430 L 441,435 L 442,436 L 442,439 L 443,440 L 443,443 L 444,444 L 444,446 L 445,447 L 445,448 L 446,449 L 446,451 L 447,452 L 447,453 L 448,454 L 448,455 L 450,457 L 450,458 L 452,460 L 452,461 L 454,463 L 454,464 L 459,469 L 459,470 L 460,470 L 467,477 L 468,477 L 470,479 L 471,479 L 473,481 L 474,481 L 475,482 L 476,482 L 477,483 L 478,483 L 479,484 L 480,484 L 481,485 L 482,485 L 483,486 L 484,486 L 485,487 L 487,487 L 488,488 L 490,488 L 491,489 L 494,489 L 495,490 L 498,490 L 499,491 L 505,491 L 506,492 L 534,492 L 535,491 L 540,491 L 541,490 L 545,490 L 546,489 L 549,489 L 550,488 L 553,488 L 554,487 L 556,487 L 557,486 L 559,486 L 560,485 L 561,485 L 562,484 L 564,484 L 565,483 L 566,483 L 567,482 L 568,482 L 569,481 L 570,481 L 572,479 L 573,479 L 575,477 L 576,477 L 581,472 L 581,471 L 582,470 L 582,408 L 579,405 L 518,405 L 516,407 L 516,408 L 515,409 L 515,427 L 516,428 L 516,430 L 517,431 L 552,431 L 553,432 L 553,456 L 551,458 L 550,458 L 548,460 L 547,460 L 545,462 L 544,462 L 543,463 L 541,463 L 540,464 L 537,464 L 536,465 L 532,465 L 531,466 L 512,466 L 511,465 L 506,465 L 505,464 L 502,464 L 501,463 L 500,463 L 499,462 L 497,462 L 496,461 L 495,461 L 494,460 L 493,460 L 492,459 L 491,459 L 489,457 L 488,457 L 480,449 L 480,448 L 478,446 L 478,445 L 476,443 L 476,442 L 475,441 L 475,439 L 474,438 L 474,437 L 473,436 L 473,433 L 472,432 L 472,428 L 471,427 L 471,402 L 472,401 L 472,397 L 473,396 L 473,393 L 474,392 L 474,391 L 475,390 L 475,389 L 476,388 L 476,387 L 477,386 L 477,385 L 479,383 L 479,382 L 488,373 L 489,373 L 491,371 L 492,371 L 493,370 L 494,370 L 495,369 L 496,369 L 497,368 L 498,368 L 499,367 L 501,367 L 502,366 L 504,366 L 505,365 L 509,365 L 510,364 L 536,364 L 537,365 L 541,365 L 542,366 L 545,366 L 546,367 L 548,367 L 549,368 L 550,368 L 551,369 L 553,369 L 554,370 L 555,370 L 556,371 L 558,371 L 559,372 L 560,372 L 561,373 L 562,373 L 563,374 L 564,374 L 565,375 L 568,375 L 570,373 L 570,351 L 569,350 L 569,348 L 566,345 L 565,345 L 564,344 L 563,344 L 562,343 L 560,343 L 559,342 L 556,342 L 555,341 L 552,341 L 551,340 L 547,340 L 546,339 L 541,339 L 540,338 L 531,338 L 530,337 Z" fill="red" /><path d="M 697,333 L 696,334 L 690,334 L 689,335 L 687,335 L 686,336 L 684,336 L 683,337 L 681,337 L 680,338 L 679,338 L 678,339 L 677,339 L 675,341 L 674,341 L 669,346 L 669,347 L 667,349 L 667,350 L 666,351 L 666,353 L 665,354 L 665,356 L 664,357 L 664,362 L 663,363 L 663,382 L 662,383 L 649,383 L 648,384 L 648,385 L 647,386 L 647,403 L 649,405 L 650,405 L 651,406 L 662,406 L 663,407 L 663,478 L 664,479 L 664,488 L 665,489 L 690,489 L 692,487 L 692,407 L 693,406 L 715,406 L 716,405 L 717,405 L 718,404 L 718,402 L 719,401 L 719,387 L 718,386 L 718,385 L 716,383 L 693,383 L 692,382 L 692,366 L 693,365 L 693,363 L 697,359 L 698,359 L 699,358 L 700,358 L 701,357 L 720,357 L 721,356 L 721,338 L 719,336 L 718,336 L 717,335 L 715,335 L 714,334 L 708,334 L 707,333 Z" fill="red" /><path d="M 614,333 L 613,334 L 611,334 L 610,335 L 609,335 L 608,336 L 607,336 L 602,341 L 602,342 L 601,343 L 601,344 L 600,345 L 600,355 L 601,356 L 601,357 L 602,358 L 602,359 L 604,361 L 604,362 L 605,362 L 608,365 L 609,365 L 610,366 L 612,366 L 613,367 L 621,367 L 622,366 L 624,366 L 625,365 L 626,365 L 627,364 L 628,364 L 632,360 L 632,359 L 633,358 L 633,357 L 634,356 L 634,354 L 635,353 L 635,347 L 634,346 L 634,344 L 633,343 L 633,342 L 632,341 L 632,340 L 628,336 L 627,336 L 626,335 L 625,335 L 624,334 L 621,334 L 620,333 Z" fill="red" /><path d="M 260,317 L 259,318 L 258,318 L 256,320 L 256,321 L 254,323 L 254,324 L 252,326 L 252,327 L 250,329 L 250,330 L 248,332 L 248,333 L 247,334 L 247,335 L 245,337 L 245,338 L 243,340 L 243,341 L 241,343 L 241,344 L 239,346 L 239,347 L 237,349 L 237,350 L 235,352 L 235,353 L 232,356 L 232,357 L 230,359 L 230,360 L 228,362 L 228,363 L 225,366 L 225,367 L 223,369 L 223,370 L 220,373 L 220,374 L 217,377 L 217,378 L 214,381 L 214,382 L 212,384 L 212,385 L 209,388 L 209,389 L 206,392 L 206,393 L 202,397 L 202,398 L 199,401 L 199,402 L 196,405 L 196,406 L 192,410 L 192,411 L 189,414 L 189,415 L 186,418 L 186,419 L 183,422 L 183,423 L 180,426 L 180,427 L 177,430 L 177,431 L 175,433 L 175,434 L 172,437 L 172,438 L 169,441 L 169,442 L 167,444 L 167,445 L 164,448 L 164,449 L 162,451 L 162,452 L 160,454 L 160,455 L 158,457 L 158,458 L 156,460 L 156,461 L 154,463 L 154,464 L 152,466 L 152,467 L 151,468 L 151,469 L 150,470 L 150,471 L 148,473 L 148,474 L 147,475 L 147,476 L 146,477 L 146,478 L 144,480 L 144,481 L 143,482 L 143,483 L 142,484 L 142,485 L 141,486 L 141,487 L 140,488 L 140,490 L 139,491 L 139,492 L 138,493 L 138,494 L 137,495 L 137,497 L 136,498 L 136,499 L 135,500 L 135,502 L 134,503 L 134,505 L 133,506 L 133,508 L 132,509 L 132,512 L 131,513 L 131,516 L 130,517 L 130,521 L 129,522 L 129,526 L 128,527 L 128,533 L 127,534 L 127,547 L 126,548 L 126,553 L 127,554 L 127,567 L 128,568 L 128,574 L 129,575 L 129,579 L 130,580 L 130,584 L 131,585 L 131,588 L 132,589 L 132,592 L 133,593 L 133,595 L 134,596 L 134,598 L 135,599 L 135,600 L 136,601 L 136,603 L 137,604 L 137,605 L 138,606 L 138,608 L 139,609 L 139,610 L 140,611 L 140,612 L 141,613 L 141,614 L 142,615 L 142,616 L 143,617 L 143,618 L 144,619 L 144,620 L 145,621 L 145,622 L 147,624 L 147,625 L 148,626 L 148,627 L 150,629 L 150,630 L 152,632 L 152,633 L 155,636 L 155,637 L 158,640 L 158,641 L 163,646 L 163,647 L 174,658 L 175,658 L 180,663 L 181,663 L 184,666 L 185,666 L 187,668 L 188,668 L 190,670 L 191,670 L 193,672 L 194,672 L 195,673 L 196,673 L 197,674 L 198,674 L 199,675 L 200,675 L 201,676 L 202,676 L 203,677 L 204,677 L 205,678 L 206,678 L 207,679 L 208,679 L 209,680 L 210,680 L 211,681 L 213,681 L 214,682 L 215,682 L 216,683 L 218,683 L 219,684 L 221,684 L 222,685 L 225,685 L 226,686 L 229,686 L 230,687 L 233,687 L 234,688 L 238,688 L 239,689 L 245,689 L 246,690 L 259,690 L 260,691 L 261,691 L 262,690 L 263,690 L 264,691 L 265,691 L 266,690 L 280,690 L 281,689 L 286,689 L 287,688 L 291,688 L 292,687 L 295,687 L 296,686 L 299,686 L 300,685 L 302,685 L 303,684 L 305,684 L 306,683 L 308,683 L 309,682 L 311,682 L 312,681 L 313,681 L 314,680 L 316,680 L 317,679 L 318,679 L 319,678 L 320,678 L 321,677 L 322,677 L 323,676 L 324,676 L 325,675 L 326,675 L 327,674 L 328,674 L 330,672 L 331,672 L 332,671 L 333,671 L 335,669 L 336,669 L 338,667 L 339,667 L 341,665 L 342,665 L 346,661 L 347,661 L 366,642 L 366,641 L 369,638 L 369,637 L 371,635 L 371,634 L 373,632 L 373,631 L 375,629 L 375,628 L 377,626 L 377,625 L 379,623 L 379,622 L 380,621 L 380,620 L 381,619 L 381,618 L 382,617 L 382,616 L 383,615 L 383,614 L 385,612 L 385,610 L 386,609 L 386,608 L 387,607 L 387,606 L 388,605 L 388,603 L 389,602 L 389,601 L 390,600 L 390,598 L 391,597 L 391,595 L 392,594 L 392,592 L 393,591 L 393,588 L 394,587 L 394,584 L 395,583 L 395,579 L 396,578 L 396,573 L 397,572 L 397,564 L 398,563 L 398,539 L 397,538 L 397,530 L 396,529 L 396,524 L 395,523 L 395,519 L 394,518 L 394,514 L 393,513 L 393,511 L 392,510 L 392,507 L 391,506 L 391,504 L 390,503 L 390,501 L 389,500 L 389,498 L 388,497 L 388,496 L 387,495 L 387,493 L 386,492 L 386,491 L 385,490 L 385,489 L 384,488 L 384,486 L 383,485 L 383,484 L 382,483 L 382,482 L 381,481 L 381,480 L 380,479 L 380,478 L 378,476 L 378,475 L 377,474 L 377,473 L 376,472 L 376,471 L 374,469 L 374,468 L 373,467 L 373,466 L 371,464 L 371,463 L 369,461 L 369,460 L 367,458 L 367,457 L 365,455 L 365,454 L 363,452 L 363,451 L 361,449 L 361,448 L 358,445 L 358,444 L 356,442 L 356,441 L 353,438 L 353,437 L 351,435 L 351,434 L 348,431 L 348,430 L 345,427 L 345,426 L 341,422 L 341,421 L 339,419 L 339,418 L 335,414 L 335,413 L 332,410 L 332,409 L 329,406 L 329,405 L 326,402 L 326,401 L 322,397 L 322,396 L 319,393 L 319,392 L 316,389 L 316,388 L 313,385 L 313,384 L 310,381 L 310,380 L 307,377 L 307,376 L 304,373 L 304,372 L 301,369 L 301,368 L 299,366 L 299,365 L 296,362 L 296,361 L 293,358 L 293,357 L 291,355 L 291,354 L 288,351 L 288,350 L 286,348 L 286,347 L 284,345 L 284,344 L 282,342 L 282,341 L 279,338 L 279,337 L 277,335 L 277,334 L 275,332 L 275,331 L 272,328 L 272,327 L 270,325 L 270,324 L 268,322 L 268,321 L 264,317 Z" fill="red" /></svg>